<svg width="186" height="118" viewBox="0 0 186 118" fill="none" xmlns="http://www.w3.org/2000/svg">
<rect width="186" height="118" fill="white"/>
<path d="M23.761 62.4935H37.761C38.5894 62.4935 39.261 63.165 39.261 63.9935V74.4935H22.261V63.9935C22.261 63.165 22.9326 62.4935 23.761 62.4935Z" stroke="#007AFF" stroke-opacity="0.15"/>
<path d="M20.761 74.4935H40.761C41.0371 74.4935 41.261 74.7173 41.261 74.9935C41.261 75.8219 40.5894 76.4935 39.761 76.4935H21.761C20.9326 76.4935 20.261 75.8219 20.261 74.9935C20.261 74.7173 20.4848 74.4935 20.761 74.4935Z" stroke="#33363F"/>
<path d="M69.145 65.4777C69.2427 65.38 69.2427 65.2218 69.145 65.1241L67.554 63.5331C67.4564 63.4355 67.2981 63.4355 67.2005 63.5331C67.1029 63.6308 67.1029 63.7891 67.2005 63.8867L68.6147 65.3009L67.2005 66.7151C67.1029 66.8127 67.1029 66.971 67.2005 67.0687C67.2981 67.1663 67.4564 67.1663 67.554 67.0687L69.145 65.4777ZM46.5125 65.3009V65.5509H68.9683V65.3009V65.0509H46.5125V65.3009Z" fill="black"/>
<path d="M144.345 65.4777C144.442 65.38 144.442 65.2218 144.345 65.1241L142.754 63.5331C142.656 63.4355 142.498 63.4355 142.4 63.5331C142.303 63.6308 142.303 63.7891 142.4 63.8867L143.815 65.3009L142.4 66.7151C142.303 66.8127 142.303 66.971 142.4 67.0687C142.498 67.1663 142.656 67.1663 142.754 67.0687L144.345 65.4777ZM134.086 65.3009V65.5509H144.168V65.3009V65.0509H134.086V65.3009Z" fill="black"/>
<path d="M46.3357 73.8167C46.238 73.9143 46.238 74.0726 46.3357 74.1702L47.9267 75.7612C48.0243 75.8589 48.1826 75.8589 48.2802 75.7612C48.3778 75.6636 48.3778 75.5053 48.2802 75.4077L46.866 73.9935L48.2802 72.5793C48.3778 72.4816 48.3778 72.3233 48.2802 72.2257C48.1826 72.1281 48.0243 72.1281 47.9267 72.2257L46.3357 73.8167ZM68.9683 73.9935V73.7435H46.5125V73.9935V74.2435H68.9683V73.9935Z" fill="black"/>
<path d="M133.909 73.8167C133.811 73.9143 133.811 74.0726 133.909 74.1702L135.5 75.7612C135.597 75.8589 135.756 75.8589 135.853 75.7612C135.951 75.6636 135.951 75.5053 135.853 75.4077L134.439 73.9935L135.853 72.5793C135.951 72.4816 135.951 72.3233 135.853 72.2257C135.756 72.1281 135.597 72.1281 135.5 72.2257L133.909 73.8167ZM144.168 73.9935V73.7435H134.086V73.9935V74.2435H144.168V73.9935Z" fill="black"/>
<path d="M94.5425 39.4062C94.4448 39.5038 94.4448 39.6621 94.5425 39.7598L96.1335 41.3508C96.2311 41.4484 96.3894 41.4484 96.487 41.3508C96.5846 41.2531 96.5846 41.0948 96.487 40.9972L95.0728 39.583L96.487 38.1688C96.5846 38.0711 96.5846 37.9129 96.487 37.8152C96.3894 37.7176 96.2311 37.7176 96.1335 37.8152L94.5425 39.4062ZM101.356 39.583V39.333H94.7192V39.583V39.833H101.356V39.583Z" fill="black"/>
<path d="M94.5425 39.4062C94.4448 39.5038 94.4448 39.6621 94.5425 39.7598L96.1335 41.3508C96.2311 41.4484 96.3894 41.4484 96.487 41.3508C96.5846 41.2531 96.5846 41.0948 96.487 40.9972L95.0728 39.583L96.487 38.1688C96.5846 38.0711 96.5846 37.9129 96.487 37.8152C96.3894 37.7176 96.2311 37.7176 96.1335 37.8152L94.5425 39.4062ZM101.356 39.583V39.333H94.7192V39.583V39.833H101.356V39.583Z" fill="black"/>
<path d="M94.5425 39.4062C94.4448 39.5038 94.4448 39.6621 94.5425 39.7598L96.1335 41.3508C96.2311 41.4484 96.3894 41.4484 96.487 41.3508C96.5846 41.2531 96.5846 41.0948 96.487 40.9972L95.0728 39.583L96.487 38.1688C96.5846 38.0711 96.5846 37.9129 96.487 37.8152C96.3894 37.7176 96.2311 37.7176 96.1335 37.8152L94.5425 39.4062ZM101.356 39.583V39.333H94.7192V39.583V39.833H101.356V39.583Z" fill="black"/>
<path d="M87.7192 62.9935C84.5483 62.9935 81.8709 65.1021 81.0103 67.9935H79.2192C76.734 67.9935 74.7192 70.0082 74.7192 72.4935C74.7192 74.9788 76.734 76.9935 79.2192 76.9935H87.7192C91.5852 76.9935 94.7192 73.8595 94.7192 69.9935C94.7192 66.1275 91.5852 62.9935 87.7192 62.9935Z" fill="#222222"/>
<line x1="94.2666" y1="70.9125" x2="101.356" y2="70.9125" stroke="black" stroke-width="0.5"/>
<line x1="94.2666" y1="70.9125" x2="101.356" y2="70.9125" stroke="black" stroke-width="0.5"/>
<path d="M125.762 62.9935C122.591 62.9935 119.914 65.1021 119.053 67.9935H117.262C114.777 67.9935 112.762 70.0082 112.762 72.4935C112.762 74.9788 114.777 76.9935 117.262 76.9935H125.762C129.628 76.9935 132.762 73.8595 132.762 69.9935C132.762 66.1275 129.628 62.9935 125.762 62.9935Z" fill="#222222"/>
<rect x="19.3445" y="80.6067" width="22.8331" height="7.24648" rx="2" fill="#FFB4B4"/>
<rect x="73.3027" y="80.6067" width="22.8331" height="7.24648" rx="2" fill="#FFB4B4"/>
<rect x="110.762" y="80.6067" width="22.8331" height="7.24648" rx="2" fill="#FFB4B4"/>
<rect x="142.844" y="80.6068" width="22.8331" height="7.24648" rx="2" fill="#FFB4B4"/>
<rect x="73.3027" y="50.51" width="22.8331" height="7.24648" rx="2" fill="#FFB4B4"/>
<path d="M22.6559 85.2641C22.5025 85.2641 22.3704 85.2278 22.2596 85.1554C22.1488 85.083 22.0635 84.9832 22.0039 84.856C21.9442 84.7289 21.9144 84.5837 21.9144 84.4203C21.9144 84.2541 21.9449 84.1075 22.006 83.9803C22.0678 83.8525 22.1537 83.7527 22.2638 83.681C22.3746 83.6085 22.5039 83.5723 22.6516 83.5723C22.7667 83.5723 22.8704 83.5936 22.9627 83.6362C23.055 83.6788 23.1307 83.7385 23.1896 83.8152C23.2486 83.8919 23.2851 83.9814 23.2993 84.0837H23.0479C23.0287 84.0091 22.9861 83.943 22.9201 83.8855C22.8547 83.8273 22.7667 83.7982 22.6559 83.7982C22.5579 83.7982 22.4719 83.8237 22.3981 83.8749C22.3249 83.9253 22.2677 83.9967 22.2265 84.089C22.1861 84.1806 22.1658 84.2882 22.1658 84.4118C22.1658 84.5382 22.1857 84.6483 22.2255 84.7421C22.266 84.8358 22.3228 84.9086 22.3959 84.9604C22.4698 85.0123 22.5564 85.0382 22.6559 85.0382C22.7212 85.0382 22.7805 85.0269 22.8338 85.0041C22.8871 84.9814 22.9322 84.9487 22.9691 84.9061C23.006 84.8635 23.0323 84.8124 23.0479 84.7527H23.2993C23.2851 84.8493 23.25 84.9363 23.1939 85.0137C23.1385 85.0904 23.065 85.1515 22.9733 85.197C22.8824 85.2417 22.7766 85.2641 22.6559 85.2641ZM23.9183 83.0482V85.23H23.6669V83.0482H23.9183ZM24.3788 85.23V83.5936H24.6302V85.23H24.3788ZM24.5066 83.3209C24.4576 83.3209 24.4154 83.3042 24.3799 83.2708C24.3451 83.2374 24.3277 83.1973 24.3277 83.1504C24.3277 83.1036 24.3451 83.0634 24.3799 83.0301C24.4154 82.9967 24.4576 82.98 24.5066 82.98C24.5556 82.98 24.5975 82.9967 24.6323 83.0301C24.6679 83.0634 24.6856 83.1036 24.6856 83.1504C24.6856 83.1973 24.6679 83.2374 24.6323 83.2708C24.5975 83.3042 24.5556 83.3209 24.5066 83.3209ZM25.7768 85.2641C25.6191 85.2641 25.4831 85.2293 25.3688 85.1597C25.2551 85.0894 25.1674 84.9913 25.1056 84.8656C25.0445 84.7392 25.014 84.5922 25.014 84.4246C25.014 84.257 25.0445 84.1092 25.1056 83.9814C25.1674 83.8528 25.2534 83.7527 25.3634 83.681C25.4742 83.6085 25.6035 83.5723 25.7512 83.5723C25.8364 83.5723 25.9206 83.5865 26.0037 83.6149C26.0868 83.6433 26.1624 83.6895 26.2306 83.7534C26.2988 83.8166 26.3531 83.9004 26.3936 84.0048C26.4341 84.1092 26.4543 84.2378 26.4543 84.3905V84.497H25.193V84.2797H26.1987C26.1987 84.1874 26.1802 84.105 26.1433 84.0325C26.107 83.9601 26.0552 83.9029 25.9877 83.861C25.921 83.8191 25.8421 83.7982 25.7512 83.7982C25.6511 83.7982 25.5644 83.823 25.4913 83.8727C25.4188 83.9217 25.3631 83.9857 25.324 84.0645C25.285 84.1433 25.2654 84.2278 25.2654 84.318V84.4629C25.2654 84.5865 25.2867 84.6913 25.3293 84.7772C25.3727 84.8624 25.4327 84.9274 25.5094 84.9722C25.5861 85.0162 25.6752 85.0382 25.7768 85.0382C25.8428 85.0382 25.9025 85.029 25.9558 85.0105C26.0097 84.9913 26.0563 84.9629 26.0953 84.9253C26.1344 84.8869 26.1646 84.8394 26.1859 84.7825L26.4288 84.8507C26.4032 84.9331 26.3602 85.0055 26.2999 85.068C26.2395 85.1298 26.1649 85.1781 26.0761 85.2129C25.9874 85.247 25.8876 85.2641 25.7768 85.2641ZM27.0882 84.2456V85.23H26.8368V83.5936H27.0797V83.8493H27.101C27.1394 83.7662 27.1976 83.6994 27.2757 83.649C27.3538 83.5979 27.4547 83.5723 27.5783 83.5723C27.6891 83.5723 27.786 83.595 27.8691 83.6405C27.9522 83.6852 28.0168 83.7534 28.063 83.845C28.1092 83.9359 28.1323 84.051 28.1323 84.1902V85.23H27.8808V84.2073C27.8808 84.0787 27.8475 83.9786 27.7807 83.9068C27.7139 83.8344 27.6223 83.7982 27.5058 83.7982C27.4256 83.7982 27.3538 83.8156 27.2906 83.8504C27.2281 83.8852 27.1788 83.9359 27.1426 84.0027C27.1063 84.0695 27.0882 84.1504 27.0882 84.2456ZM29.3033 83.5936V83.8067H28.4553V83.5936H29.3033ZM28.7025 83.2016H28.9539V84.7612C28.9539 84.8323 28.9642 84.8855 28.9848 84.921C29.0061 84.9558 29.0331 84.9793 29.0658 84.9913C29.0991 85.0027 29.1343 85.0084 29.1712 85.0084C29.1989 85.0084 29.2217 85.007 29.2394 85.0041C29.2572 85.0006 29.2714 84.9977 29.282 84.9956L29.3332 85.2215C29.3161 85.2278 29.2923 85.2342 29.2618 85.2406C29.2312 85.2477 29.1925 85.2513 29.1457 85.2513C29.0746 85.2513 29.005 85.236 28.9369 85.2055C28.8694 85.1749 28.8133 85.1284 28.7685 85.0659C28.7245 85.0034 28.7025 84.9246 28.7025 84.8294V83.2016ZM31.1432 85.2641C31.0068 85.2641 30.8864 85.2296 30.782 85.1607C30.6776 85.0911 30.5959 84.9931 30.537 84.8667C30.478 84.7396 30.4486 84.5894 30.4486 84.4161C30.4486 84.2442 30.478 84.095 30.537 83.9686C30.5959 83.8422 30.678 83.7445 30.7831 83.6756C30.8882 83.6068 31.0097 83.5723 31.1474 83.5723C31.254 83.5723 31.3381 83.5901 31.3999 83.6256C31.4624 83.6604 31.51 83.7002 31.5427 83.7449C31.5761 83.7889 31.602 83.8252 31.6205 83.8536H31.6418V83.0482H31.8932V85.23H31.6503V84.9786H31.6205C31.602 85.0084 31.5757 85.046 31.5416 85.0915C31.5075 85.1362 31.4589 85.1764 31.3957 85.2119C31.3325 85.2467 31.2483 85.2641 31.1432 85.2641ZM31.1773 85.0382C31.2781 85.0382 31.3633 85.0119 31.433 84.9594C31.5026 84.9061 31.5555 84.8326 31.5917 84.7389C31.6279 84.6444 31.646 84.5354 31.646 84.4118C31.646 84.2896 31.6283 84.1828 31.5928 84.0911C31.5572 83.9988 31.5047 83.9271 31.4351 83.8759C31.3655 83.8241 31.2795 83.7982 31.1773 83.7982C31.0707 83.7982 30.982 83.8255 30.9109 83.8802C30.8406 83.9342 30.7877 84.0077 30.7522 84.1007C30.7174 84.193 30.7 84.2967 30.7 84.4118C30.7 84.5283 30.7178 84.6341 30.7533 84.7293C30.7895 84.8237 30.8428 84.899 30.9131 84.9551C30.9841 85.0105 31.0722 85.0382 31.1773 85.0382ZM33.0746 85.2641C32.917 85.2641 32.781 85.2293 32.6666 85.1597C32.553 85.0894 32.4653 84.9913 32.4035 84.8656C32.3424 84.7392 32.3119 84.5922 32.3119 84.4246C32.3119 84.257 32.3424 84.1092 32.4035 83.9814C32.4653 83.8528 32.5512 83.7527 32.6613 83.681C32.7721 83.6085 32.9013 83.5723 33.0491 83.5723C33.1343 83.5723 33.2185 83.5865 33.3016 83.6149C33.3847 83.6433 33.4603 83.6895 33.5285 83.7534C33.5967 83.8166 33.651 83.9004 33.6915 84.0048C33.732 84.1092 33.7522 84.2378 33.7522 84.3905V84.497H32.4908V84.2797H33.4965C33.4965 84.1874 33.478 84.105 33.4411 84.0325C33.4049 83.9601 33.353 83.9029 33.2856 83.861C33.2188 83.8191 33.14 83.7982 33.0491 83.7982C32.9489 83.7982 32.8623 83.823 32.7891 83.8727C32.7167 83.9217 32.6609 83.9857 32.6219 84.0645C32.5828 84.1433 32.5633 84.2278 32.5633 84.318V84.4629C32.5633 84.5865 32.5846 84.6913 32.6272 84.7772C32.6705 84.8624 32.7305 84.9274 32.8072 84.9722C32.8839 85.0162 32.9731 85.0382 33.0746 85.0382C33.1407 85.0382 33.2004 85.029 33.2536 85.0105C33.3076 84.9913 33.3541 84.9629 33.3932 84.9253C33.4322 84.8869 33.4624 84.8394 33.4837 84.7825L33.7266 84.8507C33.7011 84.9331 33.6581 85.0055 33.5977 85.068C33.5374 85.1298 33.4628 85.1781 33.374 85.2129C33.2852 85.247 33.1854 85.2641 33.0746 85.2641ZM35.4229 83.5936L34.8178 85.23H34.5621L33.957 83.5936H34.2297L34.6814 84.8976H34.6985L35.1502 83.5936H35.4229ZM35.7548 85.23V83.5936H36.0062V85.23H35.7548ZM35.8826 83.3209C35.8336 83.3209 35.7913 83.3042 35.7558 83.2708C35.721 83.2374 35.7036 83.1973 35.7036 83.1504C35.7036 83.1036 35.721 83.0634 35.7558 83.0301C35.7913 82.9967 35.8336 82.98 35.8826 82.98C35.9316 82.98 35.9735 82.9967 36.0083 83.0301C36.0438 83.0634 36.0616 83.1036 36.0616 83.1504C36.0616 83.1973 36.0438 83.2374 36.0083 83.2708C35.9735 83.3042 35.9316 83.3209 35.8826 83.3209ZM37.1315 85.2641C36.978 85.2641 36.8459 85.2278 36.7352 85.1554C36.6244 85.083 36.5391 84.9832 36.4795 84.856C36.4198 84.7289 36.39 84.5837 36.39 84.4203C36.39 84.2541 36.4205 84.1075 36.4816 83.9803C36.5434 83.8525 36.6293 83.7527 36.7394 83.681C36.8502 83.6085 36.9795 83.5723 37.1272 83.5723C37.2423 83.5723 37.3459 83.5936 37.4383 83.6362C37.5306 83.6788 37.6062 83.7385 37.6652 83.8152C37.7241 83.8919 37.7607 83.9814 37.7749 84.0837H37.5235C37.5043 84.0091 37.4617 83.943 37.3957 83.8855C37.3303 83.8273 37.2423 83.7982 37.1315 83.7982C37.0334 83.7982 36.9475 83.8237 36.8736 83.8749C36.8005 83.9253 36.7433 83.9967 36.7021 84.089C36.6616 84.1806 36.6414 84.2882 36.6414 84.4118C36.6414 84.5382 36.6613 84.6483 36.7011 84.7421C36.7415 84.8358 36.7984 84.9086 36.8715 84.9604C36.9454 85.0123 37.032 85.0382 37.1315 85.0382C37.1968 85.0382 37.2561 85.0269 37.3094 85.0041C37.3626 84.9814 37.4077 84.9487 37.4447 84.9061C37.4816 84.8635 37.5079 84.8124 37.5235 84.7527H37.7749C37.7607 84.8493 37.7256 84.9363 37.6695 85.0137C37.6141 85.0904 37.5405 85.1515 37.4489 85.197C37.358 85.2417 37.2522 85.2641 37.1315 85.2641ZM38.8285 85.2641C38.6709 85.2641 38.5349 85.2293 38.4205 85.1597C38.3069 85.0894 38.2192 84.9913 38.1574 84.8656C38.0963 84.7392 38.0658 84.5922 38.0658 84.4246C38.0658 84.257 38.0963 84.1092 38.1574 83.9814C38.2192 83.8528 38.3051 83.7527 38.4152 83.681C38.526 83.6085 38.6553 83.5723 38.803 83.5723C38.8882 83.5723 38.9724 83.5865 39.0555 83.6149C39.1386 83.6433 39.2142 83.6895 39.2824 83.7534C39.3506 83.8166 39.4049 83.9004 39.4454 84.0048C39.4859 84.1092 39.5061 84.2378 39.5061 84.3905V84.497H38.2447V84.2797H39.2504C39.2504 84.1874 39.232 84.105 39.195 84.0325C39.1588 83.9601 39.107 83.9029 39.0395 83.861C38.9727 83.8191 38.8939 83.7982 38.803 83.7982C38.7028 83.7982 38.6162 83.823 38.543 83.8727C38.4706 83.9217 38.4148 83.9857 38.3758 84.0645C38.3367 84.1433 38.3172 84.2278 38.3172 84.318V84.4629C38.3172 84.5865 38.3385 84.6913 38.3811 84.7772C38.4244 84.8624 38.4844 84.9274 38.5611 84.9722C38.6379 85.0162 38.727 85.0382 38.8285 85.0382C38.8946 85.0382 38.9543 85.029 39.0075 85.0105C39.0615 84.9913 39.108 84.9629 39.1471 84.9253C39.1861 84.8869 39.2163 84.8394 39.2376 84.7825L39.4805 84.8507C39.455 84.9331 39.412 85.0055 39.3516 85.068C39.2913 85.1298 39.2167 85.1781 39.1279 85.2129C39.0391 85.247 38.9393 85.2641 38.8285 85.2641Z" fill="black"/>
<path d="M78.4834 85.23V83.0482H79.7917V83.2825H78.7476V84.0198H79.6937V84.2541H78.7476V85.23H78.4834ZM80.1925 85.23V83.5936H80.4354V83.8408H80.4525C80.4823 83.7598 80.5363 83.6941 80.6144 83.6437C80.6925 83.5933 80.7806 83.568 80.8786 83.568C80.8971 83.568 80.9201 83.5684 80.9478 83.5691C80.9755 83.5698 80.9965 83.5709 81.0107 83.5723V83.828C81.0022 83.8259 80.9826 83.8227 80.9521 83.8184C80.9223 83.8134 80.8907 83.8109 80.8573 83.8109C80.7777 83.8109 80.7067 83.8276 80.6442 83.861C80.5824 83.8937 80.5334 83.9391 80.4972 83.9974C80.4617 84.0549 80.4439 84.1206 80.4439 84.1945V85.23H80.1925ZM81.9237 85.2641C81.776 85.2641 81.6464 85.2289 81.5348 85.1586C81.4241 85.0883 81.3374 84.9899 81.2749 84.8635C81.2131 84.7371 81.1822 84.5894 81.1822 84.4203C81.1822 84.2499 81.2131 84.1011 81.2749 83.9739C81.3374 83.8468 81.4241 83.7481 81.5348 83.6778C81.6464 83.6075 81.776 83.5723 81.9237 83.5723C82.0714 83.5723 82.2007 83.6075 82.3115 83.6778C82.423 83.7481 82.5096 83.8468 82.5714 83.9739C82.6339 84.1011 82.6652 84.2499 82.6652 84.4203C82.6652 84.5894 82.6339 84.7371 82.5714 84.8635C82.5096 84.9899 82.423 85.0883 82.3115 85.1586C82.2007 85.2289 82.0714 85.2641 81.9237 85.2641ZM81.9237 85.0382C82.0359 85.0382 82.1282 85.0095 82.2007 84.9519C82.2731 84.8944 82.3267 84.8188 82.3616 84.725C82.3964 84.6313 82.4138 84.5297 82.4138 84.4203C82.4138 84.3109 82.3964 84.209 82.3616 84.1146C82.3267 84.0201 82.2731 83.9438 82.2007 83.8855C82.1282 83.8273 82.0359 83.7982 81.9237 83.7982C81.8115 83.7982 81.7191 83.8273 81.6467 83.8855C81.5743 83.9438 81.5206 84.0201 81.4858 84.1146C81.451 84.209 81.4336 84.3109 81.4336 84.4203C81.4336 84.5297 81.451 84.6313 81.4858 84.725C81.5206 84.8188 81.5743 84.8944 81.6467 84.9519C81.7191 85.0095 81.8115 85.0382 81.9237 85.0382ZM83.3004 84.2456V85.23H83.049V83.5936H83.2919V83.8493H83.3132C83.3515 83.7662 83.4098 83.6994 83.4879 83.649C83.566 83.5979 83.6669 83.5723 83.7904 83.5723C83.9012 83.5723 83.9982 83.595 84.0813 83.6405C84.1644 83.6852 84.229 83.7534 84.2752 83.845C84.3213 83.9359 84.3444 84.051 84.3444 84.1902V85.23H84.093V84.2073C84.093 84.0787 84.0596 83.9786 83.9929 83.9068C83.9261 83.8344 83.8345 83.7982 83.718 83.7982C83.6377 83.7982 83.566 83.8156 83.5028 83.8504C83.4403 83.8852 83.3909 83.9359 83.3547 84.0027C83.3185 84.0695 83.3004 84.1504 83.3004 84.2456ZM85.5155 83.5936V83.8067H84.6675V83.5936H85.5155ZM84.9146 83.2016H85.1661V84.7612C85.1661 84.8323 85.1764 84.8855 85.197 84.921C85.2183 84.9558 85.2453 84.9793 85.2779 84.9913C85.3113 85.0027 85.3465 85.0084 85.3834 85.0084C85.4111 85.0084 85.4338 85.007 85.4516 85.0041C85.4693 85.0006 85.4835 84.9977 85.4942 84.9956L85.5453 85.2215C85.5283 85.2278 85.5045 85.2342 85.4739 85.2406C85.4434 85.2477 85.4047 85.2513 85.3578 85.2513C85.2868 85.2513 85.2172 85.236 85.149 85.2055C85.0815 85.1749 85.0254 85.1284 84.9807 85.0659C84.9367 85.0034 84.9146 84.9246 84.9146 84.8294V83.2016ZM86.5622 85.2641C86.4045 85.2641 86.2685 85.2293 86.1542 85.1597C86.0405 85.0894 85.9528 84.9913 85.891 84.8656C85.8299 84.7392 85.7994 84.5922 85.7994 84.4246C85.7994 84.257 85.8299 84.1092 85.891 83.9814C85.9528 83.8528 86.0388 83.7527 86.1488 83.681C86.2596 83.6085 86.3889 83.5723 86.5366 83.5723C86.6218 83.5723 86.706 83.5865 86.7891 83.6149C86.8722 83.6433 86.9478 83.6895 87.016 83.7534C87.0842 83.8166 87.1385 83.9004 87.179 84.0048C87.2195 84.1092 87.2397 84.2378 87.2397 84.3905V84.497H85.9784V84.2797H86.9841C86.9841 84.1874 86.9656 84.105 86.9287 84.0325C86.8924 83.9601 86.8406 83.9029 86.7731 83.861C86.7064 83.8191 86.6275 83.7982 86.5366 83.7982C86.4365 83.7982 86.3498 83.823 86.2767 83.8727C86.2042 83.9217 86.1485 83.9857 86.1094 84.0645C86.0704 84.1433 86.0508 84.2278 86.0508 84.318V84.4629C86.0508 84.5865 86.0721 84.6913 86.1147 84.7772C86.1581 84.8624 86.2181 84.9274 86.2948 84.9722C86.3715 85.0162 86.4606 85.0382 86.5622 85.0382C86.6282 85.0382 86.6879 85.029 86.7412 85.0105C86.7951 84.9913 86.8417 84.9629 86.8807 84.9253C86.9198 84.8869 86.95 84.8394 86.9713 84.7825L87.2142 84.8507C87.1886 84.9331 87.1456 85.0055 87.0853 85.068C87.0249 85.1298 86.9503 85.1781 86.8616 85.2129C86.7728 85.247 86.673 85.2641 86.5622 85.2641ZM87.8736 84.2456V85.23H87.6222V83.5936H87.8651V83.8493H87.8864C87.9248 83.7662 87.983 83.6994 88.0611 83.649C88.1392 83.5979 88.2401 83.5723 88.3637 83.5723C88.4745 83.5723 88.5714 83.595 88.6545 83.6405C88.7376 83.6852 88.8022 83.7534 88.8484 83.845C88.8946 83.9359 88.9177 84.051 88.9177 84.1902V85.23H88.6662V84.2073C88.6662 84.0787 88.6329 83.9786 88.5661 83.9068C88.4993 83.8344 88.4077 83.7982 88.2912 83.7982C88.211 83.7982 88.1392 83.8156 88.076 83.8504C88.0135 83.8852 87.9642 83.9359 87.928 84.0027C87.8917 84.0695 87.8736 84.1504 87.8736 84.2456ZM89.995 85.2641C89.8586 85.2641 89.7382 85.2296 89.6338 85.1607C89.5294 85.0911 89.4478 84.9931 89.3888 84.8667C89.3299 84.7396 89.3004 84.5894 89.3004 84.4161C89.3004 84.2442 89.3299 84.095 89.3888 83.9686C89.4478 83.8422 89.5298 83.7445 89.6349 83.6756C89.74 83.6068 89.8615 83.5723 89.9992 83.5723C90.1058 83.5723 90.1899 83.5901 90.2517 83.6256C90.3142 83.6604 90.3618 83.7002 90.3945 83.7449C90.4279 83.7889 90.4538 83.8252 90.4723 83.8536H90.4936V83.0482H90.745V85.23H90.5021V84.9786H90.4723C90.4538 85.0084 90.4275 85.046 90.3934 85.0915C90.3593 85.1362 90.3107 85.1764 90.2475 85.2119C90.1843 85.2467 90.1001 85.2641 89.995 85.2641ZM90.0291 85.0382C90.1299 85.0382 90.2152 85.0119 90.2848 84.9594C90.3544 84.9061 90.4073 84.8326 90.4435 84.7389C90.4797 84.6444 90.4978 84.5354 90.4978 84.4118C90.4978 84.2896 90.4801 84.1828 90.4446 84.0911C90.409 83.9988 90.3565 83.9271 90.2869 83.8759C90.2173 83.8241 90.1313 83.7982 90.0291 83.7982C89.9225 83.7982 89.8338 83.8255 89.7627 83.8802C89.6924 83.9342 89.6395 84.0077 89.604 84.1007C89.5692 84.193 89.5518 84.2967 89.5518 84.4118C89.5518 84.5283 89.5696 84.6341 89.6051 84.7293C89.6413 84.8237 89.6946 84.899 89.7649 84.9551C89.8359 85.0105 89.924 85.0382 90.0291 85.0382Z" fill="black"/>
<path d="M116.526 85.23V83.0482H117.289C117.441 83.0482 117.567 83.0744 117.665 83.127C117.764 83.1788 117.837 83.2488 117.886 83.3369C117.934 83.4242 117.958 83.5212 117.958 83.6277C117.958 83.7215 117.942 83.7989 117.908 83.86C117.875 83.921 117.832 83.9693 117.778 84.0048C117.725 84.0403 117.667 84.0666 117.605 84.0837V84.105C117.671 84.1092 117.738 84.1327 117.806 84.1753C117.873 84.2179 117.93 84.279 117.975 84.3585C118.021 84.4381 118.043 84.5354 118.043 84.6504C118.043 84.7598 118.019 84.8582 117.969 84.9455C117.919 85.0329 117.841 85.1021 117.733 85.1533C117.626 85.2044 117.487 85.23 117.315 85.23H116.526ZM116.791 84.9956H117.315C117.487 84.9956 117.61 84.9622 117.682 84.8955C117.755 84.828 117.792 84.7463 117.792 84.6504C117.792 84.5766 117.773 84.5084 117.736 84.4459C117.698 84.3827 117.644 84.3323 117.575 84.2946C117.505 84.2563 117.423 84.2371 117.328 84.2371H116.791V84.9956ZM116.791 84.007H117.281C117.36 84.007 117.432 83.9913 117.496 83.9601C117.561 83.9288 117.612 83.8848 117.649 83.828C117.688 83.7712 117.707 83.7044 117.707 83.6277C117.707 83.5318 117.673 83.4505 117.607 83.3837C117.54 83.3163 117.434 83.2825 117.289 83.2825H116.791V84.007ZM118.925 85.2683C118.821 85.2683 118.727 85.2488 118.643 85.2097C118.558 85.17 118.491 85.1128 118.441 85.0382C118.392 84.9629 118.367 84.872 118.367 84.7655C118.367 84.6717 118.385 84.5957 118.422 84.5375C118.459 84.4786 118.508 84.4324 118.57 84.399C118.632 84.3656 118.7 84.3408 118.775 84.3244C118.85 84.3074 118.926 84.2939 119.002 84.284C119.101 84.2712 119.182 84.2616 119.244 84.2552C119.306 84.2481 119.352 84.2364 119.38 84.22C119.409 84.2037 119.424 84.1753 119.424 84.1348V84.1263C119.424 84.0212 119.395 83.9395 119.337 83.8813C119.28 83.823 119.194 83.7939 119.078 83.7939C118.958 83.7939 118.864 83.8202 118.796 83.8727C118.728 83.9253 118.68 83.9814 118.652 84.0411L118.414 83.9558C118.456 83.8564 118.513 83.779 118.584 83.7236C118.656 83.6675 118.734 83.6284 118.818 83.6064C118.904 83.5837 118.988 83.5723 119.07 83.5723C119.122 83.5723 119.183 83.5787 119.251 83.5915C119.32 83.6036 119.386 83.6288 119.45 83.6671C119.515 83.7055 119.568 83.7634 119.611 83.8408C119.654 83.9182 119.675 84.0219 119.675 84.1519V85.23H119.424V85.0084H119.411C119.394 85.0439 119.365 85.0819 119.326 85.1224C119.286 85.1629 119.233 85.1973 119.167 85.2257C119.101 85.2541 119.02 85.2683 118.925 85.2683ZM118.963 85.0425C119.063 85.0425 119.147 85.0229 119.215 84.9839C119.284 84.9448 119.336 84.8944 119.37 84.8326C119.406 84.7708 119.424 84.7058 119.424 84.6377V84.4075C119.413 84.4203 119.39 84.432 119.353 84.4427C119.318 84.4526 119.277 84.4615 119.23 84.4693C119.184 84.4764 119.138 84.4828 119.094 84.4885C119.051 84.4935 119.016 84.4977 118.989 84.5013C118.924 84.5098 118.863 84.5237 118.806 84.5428C118.75 84.5613 118.704 84.5894 118.669 84.627C118.635 84.6639 118.618 84.7144 118.618 84.7783C118.618 84.8656 118.651 84.9317 118.715 84.9764C118.78 85.0205 118.863 85.0425 118.963 85.0425ZM120.799 85.2641C120.645 85.2641 120.513 85.2278 120.402 85.1554C120.292 85.083 120.206 84.9832 120.147 84.856C120.087 84.7289 120.057 84.5837 120.057 84.4203C120.057 84.2541 120.088 84.1075 120.149 83.9803C120.211 83.8525 120.297 83.7527 120.407 83.681C120.517 83.6085 120.647 83.5723 120.794 83.5723C120.909 83.5723 121.013 83.5936 121.106 83.6362C121.198 83.6788 121.273 83.7385 121.332 83.8152C121.391 83.8919 121.428 83.9814 121.442 84.0837H121.191C121.172 84.0091 121.129 83.943 121.063 83.8855C120.998 83.8273 120.909 83.7982 120.799 83.7982C120.701 83.7982 120.615 83.8237 120.541 83.8749C120.468 83.9253 120.411 83.9967 120.369 84.089C120.329 84.1806 120.309 84.2882 120.309 84.4118C120.309 84.5382 120.329 84.6483 120.368 84.7421C120.409 84.8358 120.466 84.9086 120.539 84.9604C120.613 85.0123 120.699 85.0382 120.799 85.0382C120.864 85.0382 120.923 85.0269 120.977 85.0041C121.03 84.9814 121.075 84.9487 121.112 84.9061C121.149 84.8635 121.175 84.8124 121.191 84.7527H121.442C121.428 84.8493 121.393 84.9363 121.337 85.0137C121.281 85.0904 121.208 85.1515 121.116 85.197C121.025 85.2417 120.919 85.2641 120.799 85.2641ZM122.044 84.6334L122.04 84.3223H122.091L122.807 83.5936H123.118L122.355 84.3649H122.334L122.044 84.6334ZM121.81 85.23V83.0482H122.061V85.23H121.81ZM122.849 85.23L122.21 84.4203L122.389 84.2456L123.169 85.23H122.849ZM124.06 85.2641C123.903 85.2641 123.767 85.2293 123.652 85.1597C123.539 85.0894 123.451 84.9913 123.389 84.8656C123.328 84.7392 123.297 84.5922 123.297 84.4246C123.297 84.257 123.328 84.1092 123.389 83.9814C123.451 83.8528 123.537 83.7527 123.647 83.681C123.758 83.6085 123.887 83.5723 124.035 83.5723C124.12 83.5723 124.204 83.5865 124.287 83.6149C124.37 83.6433 124.446 83.6895 124.514 83.7534C124.582 83.8166 124.637 83.9004 124.677 84.0048C124.718 84.1092 124.738 84.2378 124.738 84.3905V84.497H123.476V84.2797H124.482C124.482 84.1874 124.464 84.105 124.427 84.0325C124.39 83.9601 124.339 83.9029 124.271 83.861C124.204 83.8191 124.126 83.7982 124.035 83.7982C123.935 83.7982 123.848 83.823 123.775 83.8727C123.702 83.9217 123.647 83.9857 123.607 84.0645C123.568 84.1433 123.549 84.2278 123.549 84.318V84.4629C123.549 84.5865 123.57 84.6913 123.613 84.7772C123.656 84.8624 123.716 84.9274 123.793 84.9722C123.87 85.0162 123.959 85.0382 124.06 85.0382C124.126 85.0382 124.186 85.029 124.239 85.0105C124.293 84.9913 124.34 84.9629 124.379 84.9253C124.418 84.8869 124.448 84.8394 124.469 84.7825L124.712 84.8507C124.687 84.9331 124.644 85.0055 124.583 85.068C124.523 85.1298 124.448 85.1781 124.36 85.2129C124.271 85.247 124.171 85.2641 124.06 85.2641ZM125.372 84.2456V85.23H125.12V83.5936H125.363V83.8493H125.384C125.423 83.7662 125.481 83.6994 125.559 83.649C125.637 83.5979 125.738 83.5723 125.862 83.5723C125.973 83.5723 126.069 83.595 126.153 83.6405C126.236 83.6852 126.3 83.7534 126.346 83.845C126.393 83.9359 126.416 84.051 126.416 84.1902V85.23H126.164V84.2073C126.164 84.0787 126.131 83.9786 126.064 83.9068C125.997 83.8344 125.906 83.7982 125.789 83.7982C125.709 83.7982 125.637 83.8156 125.574 83.8504C125.512 83.8852 125.462 83.9359 125.426 84.0027C125.39 84.0695 125.372 84.1504 125.372 84.2456ZM127.493 85.2641C127.357 85.2641 127.236 85.2296 127.132 85.1607C127.027 85.0911 126.946 84.9931 126.887 84.8667C126.828 84.7396 126.798 84.5894 126.798 84.4161C126.798 84.2442 126.828 84.095 126.887 83.9686C126.946 83.8422 127.028 83.7445 127.133 83.6756C127.238 83.6068 127.36 83.5723 127.497 83.5723C127.604 83.5723 127.688 83.5901 127.75 83.6256C127.812 83.6604 127.86 83.7002 127.893 83.7449C127.926 83.7889 127.952 83.8252 127.97 83.8536H127.992V83.0482H128.243V85.23H128V84.9786H127.97C127.952 85.0084 127.926 85.046 127.891 85.0915C127.857 85.1362 127.809 85.1764 127.746 85.2119C127.682 85.2467 127.598 85.2641 127.493 85.2641ZM127.527 85.0382C127.628 85.0382 127.713 85.0119 127.783 84.9594C127.852 84.9061 127.905 84.8326 127.942 84.7389C127.978 84.6444 127.996 84.5354 127.996 84.4118C127.996 84.2896 127.978 84.1828 127.943 84.0911C127.907 83.9988 127.855 83.9271 127.785 83.8759C127.715 83.8241 127.629 83.7982 127.527 83.7982C127.421 83.7982 127.332 83.8255 127.261 83.8802C127.19 83.9342 127.138 84.0077 127.102 84.1007C127.067 84.193 127.05 84.2967 127.05 84.4118C127.05 84.5283 127.068 84.6341 127.103 84.7293C127.139 84.8237 127.193 84.899 127.263 84.9551C127.334 85.0105 127.422 85.0382 127.527 85.0382Z" fill="black"/>
<path d="M148.698 85.23H148.025V83.0482H148.728C148.94 83.0482 149.121 83.0918 149.272 83.1792C149.422 83.2658 149.538 83.3905 149.618 83.5531C149.698 83.7151 149.738 83.909 149.738 84.1348C149.738 84.3621 149.698 84.5578 149.617 84.7218C149.536 84.8852 149.418 85.0109 149.263 85.0989C149.108 85.1863 148.92 85.23 148.698 85.23ZM148.289 84.9956H148.681C148.862 84.9956 149.011 84.9608 149.13 84.8912C149.249 84.8216 149.337 84.7225 149.395 84.594C149.453 84.4654 149.483 84.3124 149.483 84.1348C149.483 83.9587 149.454 83.807 149.396 83.6799C149.339 83.5521 149.253 83.4541 149.138 83.3859C149.024 83.317 148.882 83.2825 148.711 83.2825H148.289V84.9956ZM150.629 85.2683C150.525 85.2683 150.431 85.2488 150.347 85.2097C150.262 85.17 150.195 85.1128 150.145 85.0382C150.096 84.9629 150.071 84.872 150.071 84.7655C150.071 84.6717 150.089 84.5957 150.126 84.5375C150.163 84.4786 150.212 84.4324 150.274 84.399C150.336 84.3656 150.404 84.3408 150.479 84.3244C150.554 84.3074 150.63 84.2939 150.706 84.284C150.805 84.2712 150.886 84.2616 150.947 84.2552C151.01 84.2481 151.055 84.2364 151.084 84.22C151.113 84.2037 151.127 84.1753 151.127 84.1348V84.1263C151.127 84.0212 151.099 83.9395 151.041 83.8813C150.984 83.823 150.898 83.7939 150.782 83.7939C150.662 83.7939 150.568 83.8202 150.5 83.8727C150.432 83.9253 150.384 83.9814 150.356 84.0411L150.118 83.9558C150.16 83.8564 150.217 83.779 150.288 83.7236C150.36 83.6675 150.438 83.6284 150.522 83.6064C150.608 83.5837 150.691 83.5723 150.774 83.5723C150.826 83.5723 150.887 83.5787 150.955 83.5915C151.024 83.6036 151.09 83.6288 151.154 83.6671C151.219 83.7055 151.272 83.7634 151.315 83.8408C151.358 83.9182 151.379 84.0219 151.379 84.1519V85.23H151.127V85.0084H151.115C151.098 85.0439 151.069 85.0819 151.029 85.1224C150.99 85.1629 150.937 85.1973 150.871 85.2257C150.805 85.2541 150.724 85.2683 150.629 85.2683ZM150.667 85.0425C150.767 85.0425 150.85 85.0229 150.919 84.9839C150.988 84.9448 151.039 84.8944 151.074 84.8326C151.11 84.7708 151.127 84.7058 151.127 84.6377V84.4075C151.117 84.4203 151.093 84.432 151.057 84.4427C151.022 84.4526 150.98 84.4615 150.934 84.4693C150.887 84.4764 150.842 84.4828 150.798 84.4885C150.755 84.4935 150.72 84.4977 150.693 84.5013C150.627 84.5098 150.566 84.5237 150.51 84.5428C150.453 84.5613 150.408 84.5894 150.373 84.627C150.339 84.6639 150.322 84.7144 150.322 84.7783C150.322 84.8656 150.354 84.9317 150.419 84.9764C150.484 85.0205 150.567 85.0425 150.667 85.0425ZM152.549 83.5936V83.8067H151.701V83.5936H152.549ZM151.949 83.2016H152.2V84.7612C152.2 84.8323 152.21 84.8855 152.231 84.921C152.252 84.9558 152.279 84.9793 152.312 84.9913C152.345 85.0027 152.38 85.0084 152.417 85.0084C152.445 85.0084 152.468 85.007 152.486 85.0041C152.503 85.0006 152.517 84.9977 152.528 84.9956L152.579 85.2215C152.562 85.2278 152.538 85.2342 152.508 85.2406C152.477 85.2477 152.439 85.2513 152.392 85.2513C152.321 85.2513 152.251 85.236 152.183 85.2055C152.115 85.1749 152.059 85.1284 152.015 85.0659C151.971 85.0034 151.949 84.9246 151.949 84.8294V83.2016ZM153.409 85.2683C153.305 85.2683 153.211 85.2488 153.127 85.2097C153.042 85.17 152.975 85.1128 152.925 85.0382C152.876 84.9629 152.851 84.872 152.851 84.7655C152.851 84.6717 152.869 84.5957 152.906 84.5375C152.943 84.4786 152.993 84.4324 153.054 84.399C153.116 84.3656 153.184 84.3408 153.259 84.3244C153.334 84.3074 153.41 84.2939 153.486 84.284C153.585 84.2712 153.666 84.2616 153.728 84.2552C153.79 84.2481 153.836 84.2364 153.864 84.22C153.893 84.2037 153.908 84.1753 153.908 84.1348V84.1263C153.908 84.0212 153.879 83.9395 153.821 83.8813C153.765 83.823 153.678 83.7939 153.563 83.7939C153.443 83.7939 153.348 83.8202 153.28 83.8727C153.212 83.9253 153.164 83.9814 153.136 84.0411L152.898 83.9558C152.94 83.8564 152.997 83.779 153.068 83.7236C153.14 83.6675 153.218 83.6284 153.303 83.6064C153.388 83.5837 153.472 83.5723 153.554 83.5723C153.607 83.5723 153.667 83.5787 153.735 83.5915C153.804 83.6036 153.87 83.6288 153.934 83.6671C153.999 83.7055 154.053 83.7634 154.095 83.8408C154.138 83.9182 154.159 84.0219 154.159 84.1519V85.23H153.908V85.0084H153.895C153.878 85.0439 153.849 85.0819 153.81 85.1224C153.77 85.1629 153.717 85.1973 153.651 85.2257C153.585 85.2541 153.504 85.2683 153.409 85.2683ZM153.448 85.0425C153.547 85.0425 153.631 85.0229 153.699 84.9839C153.768 84.9448 153.82 84.8944 153.854 84.8326C153.89 84.7708 153.908 84.7058 153.908 84.6377V84.4075C153.897 84.4203 153.874 84.432 153.837 84.4427C153.802 84.4526 153.761 84.4615 153.714 84.4693C153.668 84.4764 153.623 84.4828 153.579 84.4885C153.535 84.4935 153.5 84.4977 153.473 84.5013C153.408 84.5098 153.347 84.5237 153.29 84.5428C153.234 84.5613 153.188 84.5894 153.153 84.627C153.119 84.6639 153.102 84.7144 153.102 84.7783C153.102 84.8656 153.135 84.9317 153.199 84.9764C153.265 85.0205 153.347 85.0425 153.448 85.0425ZM154.652 85.23V83.0482H154.904V83.8536H154.925C154.943 83.8252 154.969 83.7889 155.002 83.7449C155.035 83.7002 155.083 83.6604 155.144 83.6256C155.207 83.5901 155.291 83.5723 155.398 83.5723C155.536 83.5723 155.657 83.6068 155.762 83.6756C155.867 83.7445 155.949 83.8422 156.008 83.9686C156.067 84.095 156.097 84.2442 156.097 84.4161C156.097 84.5894 156.067 84.7396 156.008 84.8667C155.949 84.9931 155.868 85.0911 155.763 85.1607C155.659 85.2296 155.539 85.2641 155.402 85.2641C155.297 85.2641 155.213 85.2467 155.15 85.2119C155.086 85.1764 155.038 85.1362 155.004 85.0915C154.97 85.046 154.943 85.0084 154.925 84.9786H154.895V85.23H154.652ZM154.899 84.4118C154.899 84.5354 154.917 84.6444 154.954 84.7389C154.99 84.8326 155.043 84.9061 155.112 84.9594C155.182 85.0119 155.267 85.0382 155.368 85.0382C155.473 85.0382 155.561 85.0105 155.631 84.9551C155.702 84.899 155.755 84.8237 155.791 84.7293C155.827 84.6341 155.845 84.5283 155.845 84.4118C155.845 84.2967 155.828 84.193 155.792 84.1007C155.757 84.0077 155.704 83.9342 155.633 83.8802C155.563 83.8255 155.475 83.7982 155.368 83.7982C155.266 83.7982 155.18 83.8241 155.11 83.8759C155.041 83.9271 154.988 83.9988 154.953 84.0911C154.917 84.1828 154.899 84.2896 154.899 84.4118ZM156.963 85.2683C156.859 85.2683 156.765 85.2488 156.681 85.2097C156.596 85.17 156.529 85.1128 156.479 85.0382C156.429 84.9629 156.405 84.872 156.405 84.7655C156.405 84.6717 156.423 84.5957 156.46 84.5375C156.497 84.4786 156.546 84.4324 156.608 84.399C156.67 84.3656 156.738 84.3408 156.813 84.3244C156.888 84.3074 156.964 84.2939 157.04 84.284C157.139 84.2712 157.22 84.2616 157.281 84.2552C157.344 84.2481 157.389 84.2364 157.418 84.22C157.447 84.2037 157.461 84.1753 157.461 84.1348V84.1263C157.461 84.0212 157.433 83.9395 157.375 83.8813C157.318 83.823 157.232 83.7939 157.116 83.7939C156.996 83.7939 156.902 83.8202 156.834 83.8727C156.766 83.9253 156.718 83.9814 156.69 84.0411L156.452 83.9558C156.494 83.8564 156.551 83.779 156.622 83.7236C156.694 83.6675 156.772 83.6284 156.856 83.6064C156.942 83.5837 157.025 83.5723 157.108 83.5723C157.16 83.5723 157.221 83.5787 157.289 83.5915C157.358 83.6036 157.424 83.6288 157.488 83.6671C157.553 83.7055 157.606 83.7634 157.649 83.8408C157.692 83.9182 157.713 84.0219 157.713 84.1519V85.23H157.461V85.0084H157.449C157.432 85.0439 157.403 85.0819 157.363 85.1224C157.324 85.1629 157.271 85.1973 157.205 85.2257C157.139 85.2541 157.058 85.2683 156.963 85.2683ZM157.001 85.0425C157.101 85.0425 157.184 85.0229 157.253 84.9839C157.322 84.9448 157.373 84.8944 157.408 84.8326C157.444 84.7708 157.461 84.7058 157.461 84.6377V84.4075C157.451 84.4203 157.427 84.432 157.391 84.4427C157.356 84.4526 157.314 84.4615 157.268 84.4693C157.221 84.4764 157.176 84.4828 157.132 84.4885C157.089 84.4935 157.054 84.4977 157.027 84.5013C156.961 84.5098 156.9 84.5237 156.844 84.5428C156.787 84.5613 156.742 84.5894 156.707 84.627C156.673 84.6639 156.656 84.7144 156.656 84.7783C156.656 84.8656 156.688 84.9317 156.753 84.9764C156.818 85.0205 156.901 85.0425 157.001 85.0425ZM159.331 83.9601L159.105 84.024C159.091 83.9864 159.07 83.9498 159.042 83.9143C159.015 83.8781 158.978 83.8482 158.931 83.8248C158.884 83.8014 158.824 83.7896 158.751 83.7896C158.651 83.7896 158.568 83.8127 158.501 83.8589C158.435 83.9043 158.402 83.9622 158.402 84.0325C158.402 84.095 158.425 84.1444 158.47 84.1806C158.516 84.2168 158.587 84.247 158.683 84.2712L158.926 84.3308C159.072 84.3663 159.181 84.4207 159.253 84.4938C159.325 84.5663 159.361 84.6597 159.361 84.774C159.361 84.8678 159.334 84.9516 159.28 85.0254C159.226 85.0993 159.152 85.1575 159.056 85.2002C158.96 85.2428 158.849 85.2641 158.721 85.2641C158.555 85.2641 158.416 85.2278 158.307 85.1554C158.198 85.083 158.128 84.9771 158.099 84.8379L158.338 84.7783C158.361 84.8663 158.404 84.9324 158.467 84.9764C158.531 85.0205 158.614 85.0425 158.717 85.0425C158.834 85.0425 158.927 85.0176 158.996 84.9679C159.066 84.9175 159.101 84.8571 159.101 84.7868C159.101 84.73 159.081 84.6824 159.041 84.644C159.001 84.605 158.94 84.5759 158.858 84.5567L158.585 84.4928C158.435 84.4573 158.325 84.4022 158.255 84.3276C158.185 84.2524 158.15 84.1582 158.15 84.0453C158.15 83.953 158.176 83.8713 158.228 83.8003C158.281 83.7293 158.352 83.6735 158.442 83.633C158.533 83.5926 158.636 83.5723 158.751 83.5723C158.913 83.5723 159.04 83.6078 159.133 83.6788C159.226 83.7499 159.292 83.8436 159.331 83.9601ZM160.425 85.2641C160.268 85.2641 160.132 85.2293 160.017 85.1597C159.904 85.0894 159.816 84.9913 159.754 84.8656C159.693 84.7392 159.662 84.5922 159.662 84.4246C159.662 84.257 159.693 84.1092 159.754 83.9814C159.816 83.8528 159.902 83.7527 160.012 83.681C160.123 83.6085 160.252 83.5723 160.4 83.5723C160.485 83.5723 160.569 83.5865 160.652 83.6149C160.735 83.6433 160.811 83.6895 160.879 83.7534C160.947 83.8166 161.002 83.9004 161.042 84.0048C161.083 84.1092 161.103 84.2378 161.103 84.3905V84.497H159.841V84.2797H160.847C160.847 84.1874 160.829 84.105 160.792 84.0325C160.755 83.9601 160.704 83.9029 160.636 83.861C160.569 83.8191 160.491 83.7982 160.4 83.7982C160.3 83.7982 160.213 83.823 160.14 83.8727C160.067 83.9217 160.012 83.9857 159.972 84.0645C159.933 84.1433 159.914 84.2278 159.914 84.318V84.4629C159.914 84.5865 159.935 84.6913 159.978 84.7772C160.021 84.8624 160.081 84.9274 160.158 84.9722C160.235 85.0162 160.324 85.0382 160.425 85.0382C160.491 85.0382 160.551 85.029 160.604 85.0105C160.658 84.9913 160.705 84.9629 160.744 84.9253C160.783 84.8869 160.813 84.8394 160.834 84.7825L161.077 84.8507C161.052 84.9331 161.009 85.0055 160.948 85.068C160.888 85.1298 160.813 85.1781 160.725 85.2129C160.636 85.247 160.536 85.2641 160.425 85.2641Z" fill="black"/>
<path d="M82.5729 55.1332H82.2959L83.0971 52.9514H83.3698L84.1709 55.1332H83.894L83.242 53.2966H83.2249L82.5729 55.1332ZM82.6752 54.281H83.7917V54.5153H82.6752V54.281ZM84.5108 55.1332V52.9514H85.248C85.4192 52.9514 85.5591 52.9823 85.6677 53.0441C85.7771 53.1052 85.8581 53.1879 85.9106 53.2923C85.9632 53.3967 85.9895 53.5132 85.9895 53.6418C85.9895 53.7703 85.9632 53.8871 85.9106 53.9923C85.8588 54.0974 85.7785 54.1812 85.6699 54.2437C85.5612 54.3055 85.422 54.3364 85.2523 54.3364H84.7239V54.102H85.2437C85.3609 54.102 85.455 54.0817 85.5261 54.0413C85.5971 54.0008 85.6486 53.9461 85.6805 53.8772C85.7132 53.8076 85.7295 53.7291 85.7295 53.6418C85.7295 53.5544 85.7132 53.4763 85.6805 53.4074C85.6486 53.3385 85.5967 53.2845 85.525 53.2455C85.4533 53.2057 85.3581 53.1858 85.2395 53.1858H84.775V55.1332H84.5108ZM86.6793 52.9514V55.1332H86.4151V52.9514H86.6793Z" fill="black"/>
<path d="M88.9194 29.273C90.5995 29.273 91.4398 29.2732 92.0815 29.6001C92.6458 29.8877 93.1045 30.3465 93.3921 30.9107C93.7191 31.5524 93.7192 32.3928 93.7192 34.0728V42.4732C93.7192 44.1532 93.7191 44.9936 93.3921 45.6353C93.1045 46.1995 92.6458 46.6583 92.0815 46.9458C91.4398 47.2728 90.5995 47.273 88.9194 47.273H80.519C78.839 47.273 77.9986 47.2728 77.3569 46.9458C76.7927 46.6583 76.334 46.1995 76.0464 45.6353C75.7194 44.9936 75.7192 44.1532 75.7192 42.4732V34.0728C75.7192 32.3928 75.7194 31.5524 76.0464 30.9107C76.334 30.3465 76.7927 29.8877 77.3569 29.6001C77.9986 29.2732 78.839 29.273 80.519 29.273H88.9194ZM78.7192 33.273V37.273C78.7192 37.8253 79.167 38.273 79.7192 38.273C80.2715 38.273 80.7192 37.8253 80.7192 37.273V36.6871L83.1333 39.1011L83.2661 39.2486C83.516 39.5536 83.6705 39.9256 83.7095 40.3179L83.7192 40.5152V44.273C83.7192 44.8253 84.167 45.273 84.7192 45.273C85.2715 45.273 85.7192 44.8253 85.7192 44.273V40.5152C85.7194 39.9849 85.9302 39.4761 86.3052 39.1011L88.7192 36.6871V37.273C88.7192 37.8253 89.167 38.273 89.7192 38.273C90.2715 38.273 90.7192 37.8253 90.7192 37.273V33.273H86.7192C86.167 33.273 85.7192 33.7207 85.7192 34.273C85.7192 34.8253 86.167 35.273 86.7192 35.273H87.3052L84.8911 37.6871C84.8315 37.7466 84.7746 37.8088 84.7192 37.8716C84.7073 37.8581 84.6962 37.844 84.6841 37.8306L84.5474 37.6871L82.1333 35.273H82.7192C83.2715 35.273 83.7192 34.8253 83.7192 34.273C83.7192 33.7207 83.2715 33.273 82.7192 33.273H78.7192Z" fill="#222222"/>
<line x1="93.4263" y1="36.1856" x2="122.762" y2="36.1856" stroke="black" stroke-width="0.5"/>
<line x1="93.7192" y1="42.7359" x2="98.7701" y2="42.7359" stroke="black" stroke-width="0.5"/>
<line x1="101.106" y1="70.7758" x2="101.106" y2="39.583" stroke="black" stroke-width="0.5"/>
<line x1="101.106" y1="70.7758" x2="101.106" y2="39.583" stroke="black" stroke-width="0.5"/>
<line x1="101.106" y1="70.7758" x2="101.106" y2="39.583" stroke="black" stroke-width="0.5"/>
<path d="M122.34 62.5124C122.437 62.61 122.596 62.61 122.693 62.5124L124.284 60.9214C124.382 60.8238 124.382 60.6655 124.284 60.5678C124.186 60.4702 124.028 60.4702 123.931 60.5678L122.516 61.982L121.102 60.5678C121.005 60.4702 120.846 60.4702 120.749 60.5678C120.651 60.6655 120.651 60.8238 120.749 60.9214L122.34 62.5124ZM122.516 35.9432L122.266 35.9432L122.266 62.3356L122.516 62.3356L122.766 62.3356L122.766 35.9432L122.516 35.9432Z" fill="black"/>
<line x1="126.679" y1="61.2155" x2="126.679" y2="33.5372" stroke="black" stroke-width="0.5"/>
<path d="M94.5429 33.3601C94.4451 33.4576 94.4448 33.6159 94.5423 33.7137L96.1303 35.3076C96.2278 35.4054 96.3861 35.4057 96.4839 35.3082C96.5817 35.2108 96.582 35.0525 96.4845 34.9547L95.0729 33.5379L96.4897 32.1263C96.5875 32.0288 96.5878 31.8705 96.4904 31.7727C96.3929 31.6749 96.2346 31.6746 96.1368 31.7721L94.5429 33.3601ZM126.929 33.5961L126.93 33.3461L94.7198 33.2872L94.7194 33.5372L94.7189 33.7872L126.929 33.8461L126.929 33.5961Z" fill="black"/>
<line x1="98.8181" y1="42.5095" x2="98.8181" y2="67.9869" stroke="black" stroke-width="0.5"/>
<path d="M94.5423 67.5717C94.4447 67.6693 94.4447 67.8276 94.5423 67.9252L96.1333 69.5162C96.231 69.6139 96.3893 69.6139 96.4869 69.5162C96.5845 69.4186 96.5845 69.2603 96.4869 69.1627L95.0727 67.7485L96.4869 66.3342C96.5845 66.2366 96.5845 66.0783 96.4869 65.9807C96.3893 65.8831 96.231 65.8831 96.1333 65.9807L94.5423 67.5717ZM98.6689 67.7485L98.6689 67.4985L94.7191 67.4985L94.7191 67.7485L94.7191 67.9985L98.6689 67.9985L98.6689 67.7485Z" fill="black"/>
<path d="M160.168 60.9935C160.996 60.9935 161.64 60.995 162.164 61.0218C159.916 61.2723 158.168 63.1785 158.168 65.4935V68.9935L158.069 78.9603L155.168 77.9935L152.168 78.9935L149.168 77.9935L146.168 78.9935V64.9935C146.168 63.1079 146.168 62.1652 146.754 61.5794C147.34 60.9936 148.282 60.9935 150.168 60.9935H160.168ZM149.168 71.9935C148.616 71.9935 148.168 72.4412 148.168 72.9935C148.168 73.5458 148.616 73.9935 149.168 73.9935H153.168C153.72 73.9935 154.168 73.5458 154.168 72.9935C154.168 72.4412 153.72 71.9935 153.168 71.9935H149.168ZM149.168 67.9935C148.616 67.9935 148.168 68.4412 148.168 68.9935C148.168 69.5458 148.616 69.9935 149.168 69.9935H151.168L151.271 69.9886C151.775 69.9373 152.168 69.5111 152.168 68.9935C152.168 68.4758 151.775 68.0497 151.271 67.9984L151.168 67.9935H149.168ZM162.668 62.9935C164.049 62.9935 165.168 64.1128 165.168 65.4935V68.9935H160.168V65.4935C160.168 64.1128 161.287 62.9935 162.668 62.9935ZM149.168 63.9935C148.616 63.9935 148.168 64.4412 148.168 64.9935C148.168 65.5458 148.616 65.9935 149.168 65.9935H155.168C155.72 65.9935 156.168 65.5458 156.168 64.9935C156.168 64.4412 155.72 63.9935 155.168 63.9935H149.168Z" fill="#222222"/>
</svg>
